<svg width="475" height="45" viewBox="0 0 475 45" fill="none" xmlns="http://www.w3.org/2000/svg">
<path d="M16.9989 1.39453L0.981476 43.5435H10.4422L13.8565 34.1399H29.5258L32.8352 43.5435H42.5296L26.5074 1.39453H16.9989ZM16.1168 27.4021L21.7293 11.7375L27.2942 27.4021H16.1168Z" fill="white"/>
<path d="M73.6347 20.7261C75.335 19.9939 76.792 18.7932 77.8357 17.2642C78.8688 15.7127 79.4029 13.8824 79.3664 12.0188C79.3664 8.47102 78.1171 5.82131 75.6184 4.06967C73.1197 2.31803 69.8977 1.44062 65.9526 1.43744H46.0297V43.5291H67.0732C71.2059 43.5291 74.6154 42.4356 77.3016 40.2484C79.9879 38.0612 81.3279 34.9776 81.3215 30.9975C81.3215 25.6091 78.7592 22.1853 73.6347 20.7261ZM55.0136 8.60452H63.4062C65.5393 8.60452 67.2353 8.94946 68.4942 9.63931C69.7531 10.3292 70.3889 11.6405 70.4016 13.5733C70.4016 16.8445 68.0761 18.4801 63.4253 18.4801H55.0327L55.0136 8.60452ZM69.9963 35.0317C68.6007 35.8169 66.7012 36.2095 64.2979 36.2095H55.0136V24.765H63.821C66.3865 24.765 68.4068 25.1497 69.8818 25.919C71.3601 26.6915 72.0992 28.2127 72.0992 30.5016C72.0992 32.7905 71.3982 34.2449 69.9963 35.0317Z" fill="white"/>
<path d="M159.568 1.33731L143.522 43.5435H152.997L156.43 34.1304H172.119L175.433 43.5435H185.142L169.1 1.33731H159.568ZM158.681 27.3782L164.303 11.6946L169.873 27.3782H158.681Z" fill="white"/>
<path d="M215.455 29.6289L198.112 1.39453H188.699V43.5435H197.635V15.2471L215.097 43.5435H224.329V1.39453H215.455V29.6289Z" fill="white"/>
<path d="M249.664 1.39454H232.617V43.5435H249.664C256.216 43.5435 261.26 41.7283 264.795 38.0978C268.33 34.4674 270.094 29.257 270.088 22.4666C270.088 15.6826 268.324 10.4738 264.795 6.84019C261.266 3.20658 256.223 1.39136 249.664 1.39454ZM248.544 35.8519H241.792V9.08616H248.539C252.646 9.08616 255.714 10.2417 257.742 12.5529C259.771 14.864 260.786 18.1686 260.789 22.4666C260.793 31.3901 256.711 35.8519 248.544 35.8519Z" fill="white"/>
<path d="M296.963 18.7997C296.01 18.5231 294.913 18.2274 293.625 17.9079C292.338 17.5884 291.384 17.3405 290.693 17.145C290.001 16.9495 289.234 16.7206 288.385 16.4583C287.731 16.2742 287.093 16.0381 286.477 15.7526C286.018 15.5163 285.58 15.2386 285.171 14.9228C284.784 14.642 284.478 14.2636 284.284 13.8261C284.12 13.3921 284.041 12.9308 284.05 12.4671C284.027 11.775 284.18 11.0882 284.495 10.4717C284.811 9.85514 285.278 9.32908 285.853 8.94313C287.061 8.09434 288.728 7.66835 290.855 7.66517C295.83 7.66517 298.494 9.75854 298.847 13.9453H307.612C307.532 9.44382 305.992 6.07885 302.991 3.85036C299.99 1.62187 296.123 0.509218 291.389 0.512397C286.497 0.512397 282.569 1.65524 279.606 3.94095C278.183 5.00104 277.036 6.38915 276.264 7.98727C275.492 9.5854 275.117 11.3463 275.171 13.1204C275.161 14.2311 275.31 15.3376 275.615 16.4058C275.849 17.2821 276.169 18.1334 276.568 18.9475C276.996 19.7298 277.59 20.4086 278.309 20.9359C279.12 21.5717 279.802 22.0645 280.355 22.4142C281.188 22.8991 282.071 23.2955 282.987 23.5968C284.193 24.0307 285.071 24.3407 285.624 24.5123C286.177 24.684 287.159 24.9892 288.58 25.3755C288.743 25.4136 288.919 25.4613 289.114 25.5185L289.591 25.6711C289.768 25.7231 289.948 25.763 290.13 25.7903C294.231 26.9729 296.924 27.8996 298.208 28.5703C298.806 28.8568 299.305 29.3132 299.645 29.8823C299.984 30.4515 300.148 31.1082 300.115 31.77C300.139 32.5768 299.959 33.3764 299.591 34.0949C299.223 34.8134 298.681 35.4275 298.013 35.8805C296.611 36.8914 294.703 37.3953 292.29 37.3921C286.094 37.3921 282.915 34.7472 282.753 29.4573H273.636C273.677 34.2258 275.306 37.9246 278.524 40.5536C281.741 43.1827 286.209 44.4972 291.928 44.4972C294.072 44.5077 296.21 44.2579 298.294 43.7533C300.235 43.2789 302.087 42.4982 303.782 41.4406C305.463 40.3913 306.84 38.9219 307.778 37.1775C308.798 35.2355 309.306 33.0662 309.257 30.8735C309.257 27.561 308.241 25.0178 306.21 23.2439C304.178 21.47 301.096 19.9886 296.963 18.7997Z" fill="white"/>
<path d="M341.301 17.2594H324.077V1.39453H314.841V43.5435H324.077V25.3707H341.301V43.5435H350.538V1.39453H341.301V17.2594Z" fill="white"/>
<path d="M370.132 1.33731L354.09 43.5435H363.561L366.994 34.1304H382.687L386.001 43.5435H395.705L379.664 1.33731H370.132ZM369.245 27.3782L374.867 11.6946L380.436 27.3782H369.245Z" fill="white"/>
<path d="M436.729 1.39453H425.065L408.494 18.9141V1.39453H399.372V43.5435H408.494V29.9294L413.878 24.5982L426.662 43.5435H438.269L420.211 18.0319L436.729 1.39453Z" fill="white"/>
<path d="M451.168 35.7851V25.4279H471.768V18.1463H451.168V8.97172H473.604V1.39453H441.993V43.5435H474.018V35.7851H451.168Z" fill="white"/>
<path d="M130.719 18.771C128.151 20.4093 125.169 21.2796 122.123 21.2796C119.078 21.2796 116.096 20.4093 113.528 18.771V16.1722H104.258V43.5435H113.519V29.3953C119.064 31.4553 125.164 31.4553 130.709 29.3953V43.5435H139.931V16.1722H130.719V18.771Z" fill="white"/>
<path d="M113.528 1.33731H104.258V10.5596H113.528V1.33731Z" fill="#FBA700"/>
<path d="M139.989 1.33731H130.719V10.5596H139.989V1.33731Z" fill="#FBA700"/>
</svg>
